PathFileType	4	(X/Y/Z)	/Users/niels/Desktop/University/Third Semester/Perception and Action/Exam/Gymnastics Motion Tracking/Code for Gym Tracking/Analyzed Data/Webcam_Backflip/id15_2_trajectory_Sports2D/id15_2_trajectory_Sports2D_px_person00.trc
DataRate	CameraRate	NumFrames	NumMarkers	Units	OrigDataRate	OrigDataStartFrame	OrigNumFrames
29.714285714285715	29.714285714285715	8	22	m	29.714285714285715	26	105
Frame#	Time	Hip			RHip			RKnee			RAnkle			RBigToe			RSmallToe			RHeel			LHip			LKnee			LAnkle			LBigToe			LSmallToe			LHeel			Neck			Head			Nose			RShoulder			RElbow			RWrist			LShoulder			LElbow			LWrist		
		X1	Y1	Z1	X2	Y2	Z2	X3	Y3	Z3	X4	Y4	Z4	X5	Y5	Z5	X6	Y6	Z6	X7	Y7	Z7	X8	Y8	Z8	X9	Y9	Z9	X10	Y10	Z10	X11	Y11	Z11	X12	Y12	Z12	X13	Y13	Z13	X14	Y14	Z14	X15	Y15	Z15	X16	Y16	Z16	X17	Y17	Z17	X18	Y18	Z18	X19	Y19	Z19	X20	Y20	Z20	X21	Y21	Z21	X22	Y22	Z22
26	0.875	0.8962987733856468	-0.5302789359815835	0.0	0.898512731535189	-0.5287471900049149	0.0	0.9331234308039892	-0.6572007742318968	0.0	0.9323842221779032	-0.7875766224274328	0.0	0.9740401613477278	-0.8326818735225275	0.0	0.9624554095981691	-0.8337447229484897	0.0	0.9219213169431405	-0.8066060927236762	0.0	0.8957451487942836	-0.5339209873919647	0.0	0.9148763139694358	-0.6668753989277988	0.0	0.8890637019535168	-0.7833073226588668	0.0	0.9151771828360885	-0.8373991522013914	0.0	0.9136723391416995	-0.8299311133281219	0.0	0.8779340266528566	-0.7955594901496067	0.0	0.9002149873119626	-0.3782714307090186	0.0	0.943890706972464	-0.3153845789555719	0.0	0.943222900510446	-0.34911843822417266	0.0	0.886118857667283	-0.3722419301834163	0.0	0.9274922758788576	-0.3098970889011009	0.0	0.9423033793354604	-0.262347913820561	0.0	0.9138392540818988	-0.3975724455455941	0.0	0.9544117840061546	-0.3894628053929274	0.0	0.9555600084117674	-0.3124744768449321	0.0
27	0.9086538461538461	0.898532037730519	-0.5199505797550771	0.0	0.9017488957849239	-0.5173436204370077	0.0	0.9534362093145828	-0.6327321869910864	0.0	0.9626391743407291	-0.7623771618019654	0.0	1.0061277915115363	-0.803560723330606	0.0	0.9956637849075203	-0.804917506155585	0.0	0.9536892432956983	-0.7818695194241448	0.0	0.8962353768690288	-0.5245191707324109	0.0	0.9209570070838867	-0.6547758582734886	0.0	0.889497015957694	-0.769211893563023	0.0	0.9127446422800657	-0.8273900257046546	0.0	0.9098850730958441	-0.8201565138044121	0.0	0.8785619480203172	-0.7810096974458371	0.0	0.9002735203047305	-0.37062690895866024	0.0	0.9433242534509453	-0.31016828347624015	0.0	0.9443091097383763	-0.3447926897132571	0.0	0.8846156538672676	-0.36432847301105387	0.0	0.9255317669802946	-0.3052351070741464	0.0	0.9459217928428237	-0.2598210960202057	0.0	0.9165934814227633	-0.3920760050385211	0.0	0.9592783719366699	-0.3795063653611539	0.0	0.9625748402892369	-0.3170305867992769	0.0
28	0.9423076923076923	0.8970610389617695	-0.5141521071479278	0.0	0.9015897076041195	-0.5100679195660771	0.0	0.9714867332883399	-0.6067534181511337	0.0	0.9938187890548618	-0.7330470862549989	0.0	1.0392977641446568	-0.768149008054865	0.0	1.0303796189063712	-0.7701428730663384	0.0	0.9871100659310006	-0.7524908226606909	0.0	0.8927715005263642	-0.5201970548901521	0.0	0.9232464701428732	-0.647688476113098	0.0	0.8875261162050015	-0.7602497882082272	0.0	0.9090267149640369	-0.8214968328325389	0.0	0.9044290874557117	-0.8145758603955215	0.0	0.8763115386940519	-0.7713214131588928	0.0	0.898138960650509	-0.36782122355330354	0.0	0.9399143000941076	-0.30980303170908097	0.0	0.9432384267952847	-0.34549563334212746	0.0	0.8816977209781106	-0.3605112692369931	0.0	0.9236566995419572	-0.30515334207215045	0.0	0.9509640320902065	-0.2610966900317718	0.0	0.9160507400242076	-0.39089851103522766	0.0	0.9623248101566785	-0.37445451841071603	0.0	0.9698688850081734	-0.32420742659162594	0.0
29	0.9759615384615384	0.8912642630112665	-0.5129580439289554	0.0	0.8971755458509864	-0.5072016028363473	0.0	0.9840591271633061	-0.5798731643836226	0.0	1.0224506121795038	-0.6982130505925344	0.0	1.0697157815791811	-0.7244814280820566	0.0	1.0625530384920052	-0.7275751928863246	0.0	1.018938725594946	-0.716842917109401	0.0	0.8854199317169508	-0.5210245880111212	0.0	0.9207908002592822	-0.6463282398498191	0.0	0.882373685217423	-0.7574214675605537	0.0	0.9034239387719135	-0.8204161472904817	0.0	0.8971960233742545	-0.8138439082984653	0.0	0.8707776823440881	-0.767561638390481	0.0	0.8934368069773178	-0.3696627976962453	0.0	0.9337915530588365	-0.31387785558305104	0.0	0.9394819981561041	-0.3507143884451132	0.0	0.8767431822112073	-0.3607387123861104	0.0	0.9210855715349896	-0.3091985866166739	0.0	0.9553739095183907	-0.26613655475481773	0.0	0.91130080671873	-0.3936986419969643	0.0	0.9615234120118193	-0.3752156969068378	0.0	0.9748032583462197	-0.3331157181990473	0.0
30	1.0096153846153846	0.8820396990073396	-0.516357866801861	0.0	0.8891389955785794	-0.5089236226646942	0.0	0.9895606408758371	-0.5535953150425247	0.0	1.0460836650869116	-0.6576560275731202	0.0	1.0946588101385926	-0.6721393038125143	0.0	1.0889741802290192	-0.6768339801914	0.0	1.0467822102370266	-0.6745159156286896	0.0	0.8757988695018781	-0.5267159761100475	0.0	0.9142866357609383	-0.6508258158674715	0.0	0.8744699385563492	-0.7610260613097946	0.0	0.8964172220780331	-0.8245091123257103	0.0	0.8891175627870379	-0.8181846615818722	0.0	0.8624809513078755	-0.7702516464941955	0.0	0.8868118458823608	-0.37592371901312754	0.0	0.9257772591907816	-0.32185286864869783	0.0	0.9334118846163403	-0.35966436719775163	0.0	0.8704003435165985	-0.365088105169447	0.0	0.918195347573366	-0.31759244185026214	0.0	0.9583839586924605	-0.2757754307776152	0.0	0.902727481049003	-0.40006669506837417	0.0	0.9562194495015208	-0.3815183337429755	0.0	0.9756477380564615	-0.3440072706235049	0.0
31	1.0432692307692306	0.8721624431506423	-0.5241227626808262	0.0	0.8800957443343786	-0.5151015320876161	0.0	0.9889047244552015	-0.5302256498741076	0.0	1.0639594984071046	-0.6133135287606564	0.0	1.1128090622108155	-0.6138123574397146	0.0	1.1080600088587498	-0.620390022744638	0.0	1.0695815591524032	-0.6274484541485668	0.0	0.8668925970934052	-0.5366944745958058	0.0	0.9063443161326974	-0.6608134018546975	0.0	0.866255277343572	-0.7708489094097641	0.0	0.8903923688122908	-0.833735802990801	0.0	0.8827500996698618	-0.8274353082792668	0.0	0.8537582818486977	-0.7795607937411659	0.0	0.8803145432887088	-0.3861830253358384	0.0	0.9181846336069022	-0.33296456704370786	0.0	0.9269684379437847	-0.37139708035411173	0.0	0.8649595731266051	-0.3735139019314333	0.0	0.9168529304669939	-0.33076406476803955	0.0	0.9610823870043107	-0.2908886333946301	0.0	0.8924627878999833	-0.4095154975742215	0.0	0.9474266662647313	-0.3925720427195625	0.0	0.9721337745474622	-0.3579386979697679	0.0
32	1.0769230769230769	0.8669939248744298	-0.5359409251759684	0.0	0.8753791069459882	-0.5254934029611111	0.0	0.9865921558732933	-0.5127288615796337	0.0	1.0783421763592398	-0.5700310756571989	0.0	1.1253505416434415	-0.5561081772629446	0.0	1.1212478381708113	-0.5643770772791612	0.0	1.0888253017865075	-0.5807447260796429	0.0	0.8636790202673973	-0.5504749528252897	0.0	0.902060257851683	-0.6756253553567411	0.0	0.8629756935407342	-0.7862455092535154	0.0	0.8902562192959143	-0.8476062687811978	0.0	0.8828654241413866	-0.8411209198295593	0.0	0.8497938778508707	-0.795161426187635	0.0	0.8783140063181485	-0.39998377597041185	0.0	0.916038692335029	-0.3465411301197662	0.0	0.9247680670191893	-0.3852878804615953	0.0	0.8650420196624751	-0.3859329470441786	0.0	0.9211020172345258	-0.34899853829141536	0.0	0.967077907665708	-0.31185383928789373	0.0	0.885279932349281	-0.4216882421970174	0.0	0.9387429530345083	-0.40716201108609695	0.0	0.966950002061425	-0.3755919598783545	0.0
33	1.1105769230769231	0.8749690532587903	-0.5515861860548831	0.0	0.88353242344507	-0.5399975134085852	0.0	0.9913050569244654	-0.5046075713790302	0.0	1.0955044628902249	-0.5355203529089193	0.0	1.1374966655299217	-0.5087737089930512	0.0	1.1343441507033836	-0.5181365232552111	0.0	1.109654947800125	-0.5426635549391896	0.0	0.8738119469001355	-0.5677595733077444	0.0	0.9095185949911323	-0.6944000341349779	0.0	0.8730445253153875	-0.8060950117480151	0.0	0.9038229876793675	-0.8649706471549641	0.0	0.8969575503321994	-0.858287858483689	0.0	0.8591720614901994	-0.8159514276212055	0.0	0.88822095196853	-0.4171419490978247	0.0	0.9270993933471624	-0.3624528331047144	0.0	0.9344192494437887	-0.4013302444802316	0.0	0.8780762377042194	-0.40254379412979624	0.0	0.9375764090570244	-0.3723269017826497	0.0	0.9828096108962485	-0.3384628073959453	0.0	0.8891903737184529	-0.43656824008577766	0.0	0.937751912769275	-0.42350299802678093	0.0	0.967755086188942	-0.39549298925040277	0.0
